<mxfile host="65bd71144e">
    <diagram id="1ASRZoJnd2U0lI288vgH" name="Runtimes">
        <mxGraphModel dx="864" dy="700" grid="1" gridSize="10" guides="1" tooltips="1" connect="1" arrows="1" fold="1" page="1" pageScale="1" pageWidth="850" pageHeight="1100" math="0" shadow="0">
            <root>
                <mxCell id="0"/>
                <mxCell id="1" parent="0"/>
                <mxCell id="3" value="Onboard Bot" style="swimlane;whiteSpace=wrap;html=1;" parent="1" vertex="1">
                    <mxGeometry x="85" y="240" width="680" height="440" as="geometry">
                        <mxRectangle x="60" y="230" width="140" height="30" as="alternateBounds"/>
                    </mxGeometry>
                </mxCell>
                <mxCell id="48" value="" style="group;align=left;spacingBottom=0;" parent="3" vertex="1" connectable="0">
                    <mxGeometry x="25" y="40" width="630" height="110" as="geometry"/>
                </mxCell>
                <mxCell id="46" value="&amp;nbsp;Software" style="rounded=0;whiteSpace=wrap;html=1;dashed=1;dashPattern=1 4;verticalAlign=bottom;align=left;" parent="48" vertex="1">
                    <mxGeometry width="630" height="110" as="geometry"/>
                </mxCell>
                <mxCell id="5" value="hal.py" style="rounded=1;whiteSpace=wrap;html=1;" parent="48" vertex="1">
                    <mxGeometry x="255" y="25" width="120" height="60" as="geometry"/>
                </mxCell>
                <mxCell id="47" value="" style="group;align=left;" parent="3" vertex="1" connectable="0">
                    <mxGeometry x="25" y="170" width="630" height="250" as="geometry"/>
                </mxCell>
                <mxCell id="28" value="&amp;nbsp;Hardware" style="rounded=0;whiteSpace=wrap;html=1;dashed=1;dashPattern=1 4;verticalAlign=bottom;align=left;" parent="47" vertex="1">
                    <mxGeometry width="630" height="250" as="geometry"/>
                </mxCell>
                <mxCell id="29" value="" style="group" parent="47" vertex="1" connectable="0">
                    <mxGeometry x="20" y="20" width="190" height="190" as="geometry"/>
                </mxCell>
                <mxCell id="30" value="Lidar Control" style="rounded=0;whiteSpace=wrap;html=1;dashed=1;verticalAlign=bottom;" parent="29" vertex="1">
                    <mxGeometry width="190" height="190" as="geometry"/>
                </mxCell>
                <mxCell id="31" value="Lidar Sensor" style="rounded=0;whiteSpace=wrap;html=1;" parent="29" vertex="1">
                    <mxGeometry x="20" y="20" width="70" height="70" as="geometry"/>
                </mxCell>
                <mxCell id="32" value="Vertical 180 Servo" style="rounded=0;whiteSpace=wrap;html=1;" parent="29" vertex="1">
                    <mxGeometry x="20" y="100" width="70" height="70" as="geometry"/>
                </mxCell>
                <mxCell id="33" value="Horizontal 360 Servo" style="rounded=0;whiteSpace=wrap;html=1;" parent="29" vertex="1">
                    <mxGeometry x="100" y="100" width="70" height="70" as="geometry"/>
                </mxCell>
                <mxCell id="34" value="" style="group" parent="47" vertex="1" connectable="0">
                    <mxGeometry x="220" y="20" width="190" height="190" as="geometry"/>
                </mxCell>
                <mxCell id="35" value="Orientation Sensors" style="rounded=0;whiteSpace=wrap;html=1;dashed=1;verticalAlign=bottom;" parent="34" vertex="1">
                    <mxGeometry width="190" height="190" as="geometry"/>
                </mxCell>
                <mxCell id="36" value="Gyroscope" style="rounded=0;whiteSpace=wrap;html=1;" parent="34" vertex="1">
                    <mxGeometry x="20" y="100" width="70" height="70" as="geometry"/>
                </mxCell>
                <mxCell id="37" value="Acceler-ometer" style="rounded=0;whiteSpace=wrap;html=1;" parent="34" vertex="1">
                    <mxGeometry x="100" y="20" width="70" height="70" as="geometry"/>
                </mxCell>
                <mxCell id="38" value="Magnet-ometer" style="rounded=0;whiteSpace=wrap;html=1;" parent="34" vertex="1">
                    <mxGeometry x="100" y="100" width="70" height="70" as="geometry"/>
                </mxCell>
                <mxCell id="39" value="Therm-ometer" style="rounded=0;whiteSpace=wrap;html=1;" parent="34" vertex="1">
                    <mxGeometry x="20" y="20" width="70" height="70" as="geometry"/>
                </mxCell>
                <mxCell id="40" value="" style="group" parent="47" vertex="1" connectable="0">
                    <mxGeometry x="420" y="20" width="190" height="190" as="geometry"/>
                </mxCell>
                <mxCell id="41" value="Wheel Control" style="rounded=0;whiteSpace=wrap;html=1;dashed=1;verticalAlign=bottom;" parent="40" vertex="1">
                    <mxGeometry width="190" height="190" as="geometry"/>
                </mxCell>
                <mxCell id="42" value="Front Left Motor" style="rounded=0;whiteSpace=wrap;html=1;" parent="40" vertex="1">
                    <mxGeometry x="20" y="20" width="70" height="70" as="geometry"/>
                </mxCell>
                <mxCell id="43" value="Front Right Motor" style="rounded=0;whiteSpace=wrap;html=1;" parent="40" vertex="1">
                    <mxGeometry x="100" y="20" width="70" height="70" as="geometry"/>
                </mxCell>
                <mxCell id="44" value="Back Left Motor" style="rounded=0;whiteSpace=wrap;html=1;" parent="40" vertex="1">
                    <mxGeometry x="20" y="100" width="70" height="70" as="geometry"/>
                </mxCell>
                <mxCell id="45" value="Back Right Motor" style="rounded=0;whiteSpace=wrap;html=1;" parent="40" vertex="1">
                    <mxGeometry x="100" y="100" width="70" height="70" as="geometry"/>
                </mxCell>
                <mxCell id="57" value="gpio" style="edgeStyle=orthogonalEdgeStyle;html=1;exitX=0.5;exitY=0;exitDx=0;exitDy=0;entryX=0.5;entryY=1;entryDx=0;entryDy=0;startArrow=classic;startFill=1;" parent="3" source="35" target="5" edge="1">
                    <mxGeometry x="-0.1429" relative="1" as="geometry">
                        <Array as="points">
                            <mxPoint x="335" y="160"/>
                            <mxPoint x="335" y="160"/>
                        </Array>
                        <mxPoint as="offset"/>
                    </mxGeometry>
                </mxCell>
                <mxCell id="58" value="&amp;nbsp;gpio&amp;nbsp;" style="edgeStyle=orthogonalEdgeStyle;html=1;exitX=0.5;exitY=0;exitDx=0;exitDy=0;entryX=0.75;entryY=1;entryDx=0;entryDy=0;startArrow=classic;startFill=1;" parent="3" source="41" target="5" edge="1">
                    <mxGeometry relative="1" as="geometry">
                        <Array as="points">
                            <mxPoint x="535" y="160"/>
                            <mxPoint x="365" y="160"/>
                        </Array>
                    </mxGeometry>
                </mxCell>
                <mxCell id="63" value="&amp;nbsp;gpio&amp;nbsp;" style="edgeStyle=orthogonalEdgeStyle;html=1;exitX=0.25;exitY=1;exitDx=0;exitDy=0;entryX=0.5;entryY=0;entryDx=0;entryDy=0;startArrow=classic;startFill=1;" edge="1" parent="3" source="5" target="30">
                    <mxGeometry relative="1" as="geometry">
                        <Array as="points">
                            <mxPoint x="310" y="160"/>
                            <mxPoint x="140" y="160"/>
                        </Array>
                    </mxGeometry>
                </mxCell>
                <mxCell id="49" value="External to Bot" style="swimlane;whiteSpace=wrap;html=1;" parent="1" vertex="1">
                    <mxGeometry x="85" y="80" width="680" height="140" as="geometry"/>
                </mxCell>
                <mxCell id="61" value="&amp;nbsp;http&amp;nbsp;" style="edgeStyle=orthogonalEdgeStyle;html=1;exitX=0;exitY=0.5;exitDx=0;exitDy=0;entryX=1;entryY=0.5;entryDx=0;entryDy=0;startArrow=classic;startFill=1;" parent="49" source="50" target="51" edge="1">
                    <mxGeometry relative="1" as="geometry"/>
                </mxCell>
                <mxCell id="50" value="autonoma" style="rounded=1;whiteSpace=wrap;html=1;" parent="49" vertex="1">
                    <mxGeometry x="385" y="55" width="120" height="60" as="geometry"/>
                </mxCell>
                <mxCell id="51" value="web ui" style="rounded=1;whiteSpace=wrap;html=1;" parent="49" vertex="1">
                    <mxGeometry x="170" y="55" width="120" height="60" as="geometry"/>
                </mxCell>
                <mxCell id="60" value="tcp" style="edgeStyle=orthogonalEdgeStyle;html=1;exitX=1;exitY=0.5;exitDx=0;exitDy=0;entryX=0.5;entryY=1;entryDx=0;entryDy=0;startArrow=classic;startFill=1;" parent="1" source="5" target="50" edge="1">
                    <mxGeometry x="-0.2432" relative="1" as="geometry">
                        <mxPoint as="offset"/>
                    </mxGeometry>
                </mxCell>
            </root>
        </mxGraphModel>
    </diagram>
    <diagram id="jZvpRFbThuLb9L8I6aaI" name="autonoma">
        <mxGraphModel dx="977" dy="583" grid="1" gridSize="10" guides="1" tooltips="1" connect="1" arrows="1" fold="1" page="1" pageScale="1" pageWidth="850" pageHeight="1100" math="0" shadow="0">
            <root>
                <mxCell id="0"/>
                <mxCell id="1" parent="0"/>
                <mxCell id="8MhSDlOkEB60rkpcnJ9W-17" style="edgeStyle=orthogonalEdgeStyle;html=1;exitX=0;exitY=0;exitDx=0;exitDy=30;exitPerimeter=0;entryX=1;entryY=0.5;entryDx=0;entryDy=0;startArrow=none;startFill=0;endArrow=classic;endFill=1;" edge="1" parent="1" source="8MhSDlOkEB60rkpcnJ9W-1" target="8MhSDlOkEB60rkpcnJ9W-15">
                    <mxGeometry relative="1" as="geometry"/>
                </mxCell>
                <mxCell id="8MhSDlOkEB60rkpcnJ9W-1" value="World Model" style="shape=cube;whiteSpace=wrap;html=1;boundedLbl=1;backgroundOutline=1;darkOpacity=0.05;darkOpacity2=0.1;" vertex="1" parent="1">
                    <mxGeometry x="360" y="380" width="120" height="80" as="geometry"/>
                </mxCell>
                <mxCell id="8MhSDlOkEB60rkpcnJ9W-25" style="edgeStyle=orthogonalEdgeStyle;html=1;exitX=0.5;exitY=1;exitDx=0;exitDy=0;entryX=0;entryY=0;entryDx=120;entryDy=50;entryPerimeter=0;startArrow=classic;startFill=1;endArrow=classic;endFill=1;" edge="1" parent="1" source="8MhSDlOkEB60rkpcnJ9W-2" target="8MhSDlOkEB60rkpcnJ9W-12">
                    <mxGeometry relative="1" as="geometry"/>
                </mxCell>
                <mxCell id="8MhSDlOkEB60rkpcnJ9W-26" style="edgeStyle=orthogonalEdgeStyle;html=1;exitX=0.5;exitY=1;exitDx=0;exitDy=0;entryX=0;entryY=0;entryDx=120;entryDy=50;entryPerimeter=0;startArrow=classic;startFill=1;endArrow=classic;endFill=1;" edge="1" parent="1" source="8MhSDlOkEB60rkpcnJ9W-2" target="8MhSDlOkEB60rkpcnJ9W-11">
                    <mxGeometry relative="1" as="geometry"/>
                </mxCell>
                <mxCell id="8MhSDlOkEB60rkpcnJ9W-27" style="edgeStyle=orthogonalEdgeStyle;html=1;exitX=0.5;exitY=1;exitDx=0;exitDy=0;entryX=0;entryY=0;entryDx=120;entryDy=50;entryPerimeter=0;startArrow=classic;startFill=1;endArrow=classic;endFill=1;" edge="1" parent="1" source="8MhSDlOkEB60rkpcnJ9W-2" target="8MhSDlOkEB60rkpcnJ9W-1">
                    <mxGeometry relative="1" as="geometry"/>
                </mxCell>
                <mxCell id="8MhSDlOkEB60rkpcnJ9W-2" value="Path Router" style="rounded=1;whiteSpace=wrap;html=1;" vertex="1" parent="1">
                    <mxGeometry x="530" y="150" width="120" height="60" as="geometry"/>
                </mxCell>
                <mxCell id="8MhSDlOkEB60rkpcnJ9W-4" value="Motion Planner" style="rounded=1;whiteSpace=wrap;html=1;" vertex="1" parent="1">
                    <mxGeometry x="720" y="240" width="120" height="60" as="geometry"/>
                </mxCell>
                <mxCell id="8MhSDlOkEB60rkpcnJ9W-5" value="Wheel Controller" style="rounded=1;whiteSpace=wrap;html=1;" vertex="1" parent="1">
                    <mxGeometry x="950" y="530" width="120" height="60" as="geometry"/>
                </mxCell>
                <mxCell id="8MhSDlOkEB60rkpcnJ9W-6" value="Sensor Controller" style="rounded=1;whiteSpace=wrap;html=1;" vertex="1" parent="1">
                    <mxGeometry x="920" y="420" width="120" height="60" as="geometry"/>
                </mxCell>
                <mxCell id="8MhSDlOkEB60rkpcnJ9W-7" value="Sensor Readings" style="rounded=1;whiteSpace=wrap;html=1;" vertex="1" parent="1">
                    <mxGeometry x="770" y="390" width="120" height="60" as="geometry"/>
                </mxCell>
                <mxCell id="8MhSDlOkEB60rkpcnJ9W-9" value="Motion Controller" style="rounded=1;whiteSpace=wrap;html=1;" vertex="1" parent="1">
                    <mxGeometry x="800" y="530" width="120" height="60" as="geometry"/>
                </mxCell>
                <mxCell id="8MhSDlOkEB60rkpcnJ9W-30" style="edgeStyle=orthogonalEdgeStyle;html=1;exitX=0;exitY=0;exitDx=70;exitDy=80;exitPerimeter=0;entryX=0.583;entryY=0.005;entryDx=0;entryDy=0;entryPerimeter=0;startArrow=none;startFill=0;endArrow=classic;endFill=1;" edge="1" parent="1" source="8MhSDlOkEB60rkpcnJ9W-11" target="8MhSDlOkEB60rkpcnJ9W-22">
                    <mxGeometry relative="1" as="geometry"/>
                </mxCell>
                <mxCell id="8MhSDlOkEB60rkpcnJ9W-11" value="Orientation/ Position" style="shape=cube;whiteSpace=wrap;html=1;boundedLbl=1;backgroundOutline=1;darkOpacity=0.05;darkOpacity2=0.1;" vertex="1" parent="1">
                    <mxGeometry x="360" y="500" width="120" height="80" as="geometry"/>
                </mxCell>
                <mxCell id="8MhSDlOkEB60rkpcnJ9W-12" value="Route" style="shape=cube;whiteSpace=wrap;html=1;boundedLbl=1;backgroundOutline=1;darkOpacity=0.05;darkOpacity2=0.1;" vertex="1" parent="1">
                    <mxGeometry x="360" y="260" width="120" height="80" as="geometry"/>
                </mxCell>
                <mxCell id="8MhSDlOkEB60rkpcnJ9W-13" value="User Interface" style="swimlane;whiteSpace=wrap;html=1;" vertex="1" parent="1">
                    <mxGeometry x="40" y="120" width="200" height="240" as="geometry"/>
                </mxCell>
                <mxCell id="8MhSDlOkEB60rkpcnJ9W-14" value="Mission Setter" style="rounded=1;whiteSpace=wrap;html=1;" vertex="1" parent="8MhSDlOkEB60rkpcnJ9W-13">
                    <mxGeometry x="40" y="60" width="120" height="60" as="geometry"/>
                </mxCell>
                <mxCell id="8MhSDlOkEB60rkpcnJ9W-15" value="Viewer/Map" style="rounded=1;whiteSpace=wrap;html=1;" vertex="1" parent="8MhSDlOkEB60rkpcnJ9W-13">
                    <mxGeometry x="40" y="140" width="120" height="60" as="geometry"/>
                </mxCell>
                <mxCell id="8MhSDlOkEB60rkpcnJ9W-19" style="edgeStyle=orthogonalEdgeStyle;html=1;exitX=0;exitY=0;exitDx=0;exitDy=30;exitPerimeter=0;entryX=1;entryY=0.5;entryDx=0;entryDy=0;startArrow=classic;startFill=1;" edge="1" parent="1" source="8MhSDlOkEB60rkpcnJ9W-16" target="8MhSDlOkEB60rkpcnJ9W-14">
                    <mxGeometry relative="1" as="geometry"/>
                </mxCell>
                <mxCell id="8MhSDlOkEB60rkpcnJ9W-23" style="edgeStyle=orthogonalEdgeStyle;html=1;exitX=0;exitY=0;exitDx=120;exitDy=50;exitPerimeter=0;entryX=0;entryY=0.5;entryDx=0;entryDy=0;startArrow=none;startFill=0;endArrow=classic;endFill=1;" edge="1" parent="1" source="8MhSDlOkEB60rkpcnJ9W-16" target="8MhSDlOkEB60rkpcnJ9W-2">
                    <mxGeometry relative="1" as="geometry"/>
                </mxCell>
                <mxCell id="8MhSDlOkEB60rkpcnJ9W-16" value="Mission" style="shape=cube;whiteSpace=wrap;html=1;boundedLbl=1;backgroundOutline=1;darkOpacity=0.05;darkOpacity2=0.1;" vertex="1" parent="1">
                    <mxGeometry x="360" y="130" width="120" height="80" as="geometry"/>
                </mxCell>
                <mxCell id="8MhSDlOkEB60rkpcnJ9W-20" style="edgeStyle=orthogonalEdgeStyle;html=1;exitX=1;exitY=0.5;exitDx=0;exitDy=0;entryX=0;entryY=0;entryDx=0;entryDy=30;entryPerimeter=0;startArrow=classic;startFill=1;endArrow=none;endFill=0;" edge="1" parent="1" source="8MhSDlOkEB60rkpcnJ9W-15" target="8MhSDlOkEB60rkpcnJ9W-11">
                    <mxGeometry relative="1" as="geometry"/>
                </mxCell>
                <mxCell id="8MhSDlOkEB60rkpcnJ9W-21" style="edgeStyle=orthogonalEdgeStyle;html=1;exitX=1;exitY=0.5;exitDx=0;exitDy=0;entryX=0;entryY=0;entryDx=0;entryDy=30;entryPerimeter=0;startArrow=classic;startFill=1;endArrow=none;endFill=0;" edge="1" parent="1" source="8MhSDlOkEB60rkpcnJ9W-15" target="8MhSDlOkEB60rkpcnJ9W-12">
                    <mxGeometry relative="1" as="geometry"/>
                </mxCell>
                <mxCell id="8MhSDlOkEB60rkpcnJ9W-22" value="Orientation/ Position History" style="shape=cube;whiteSpace=wrap;html=1;boundedLbl=1;backgroundOutline=1;darkOpacity=0.05;darkOpacity2=0.1;" vertex="1" parent="1">
                    <mxGeometry x="360" y="620" width="120" height="80" as="geometry"/>
                </mxCell>
                <mxCell id="8MhSDlOkEB60rkpcnJ9W-29" style="edgeStyle=orthogonalEdgeStyle;html=1;exitX=1;exitY=0.5;exitDx=0;exitDy=0;entryX=0;entryY=0;entryDx=0;entryDy=30;entryPerimeter=0;startArrow=classic;startFill=1;endArrow=none;endFill=0;" edge="1" parent="1" source="8MhSDlOkEB60rkpcnJ9W-15" target="8MhSDlOkEB60rkpcnJ9W-22">
                    <mxGeometry relative="1" as="geometry"/>
                </mxCell>
                <mxCell id="8MhSDlOkEB60rkpcnJ9W-31" value="World Updater" style="rounded=1;whiteSpace=wrap;html=1;" vertex="1" parent="1">
                    <mxGeometry x="620" y="390" width="120" height="60" as="geometry"/>
                </mxCell>
                <mxCell id="8MhSDlOkEB60rkpcnJ9W-32" value="Position Identifier" style="rounded=1;whiteSpace=wrap;html=1;" vertex="1" parent="1">
                    <mxGeometry x="620" y="490" width="120" height="60" as="geometry"/>
                </mxCell>
            </root>
        </mxGraphModel>
    </diagram>
</mxfile>